<?xml version="1.0" standalone="no"?><!DOCTYPE svg PUBLIC "-//W3C//DTD SVG 1.1//EN" "http://www.w3.org/Graphics/SVG/1.1/DTD/svg11.dtd"><svg t="1701003528138" class="icon" viewBox="0 0 1024 1024" version="1.1" xmlns="http://www.w3.org/2000/svg" p-id="1652" xmlns:xlink="http://www.w3.org/1999/xlink" width="200" height="200"><path d="M523.980201 0.051197c2.457477 3.839808 6.655667 1.79191 9.932303 2.662267 62.20489 16.280786 87.39403 91.899405 47.101645 142.021699-2.508675 3.123044-5.170941 6.092495-7.833208 9.061947-9.317934 10.546673-15.512824 22.117294-13.925704 37.015749 0.870356 8.242788 0.20479 16.639168-2.406279 24.677166-7.270036 22.117294-28.926554 35.582221-52.272587 32.356783-21.60532-2.969452-38.858857-21.963702-40.343583-44.439378-0.153592-1.9967-0.358382-4.044598-0.051197-5.990101 3.020649-19.915804-5.682916-34.916654-18.533473-49.251937-44.388181-49.661517-21.042148-127.532823 43.057047-145.19594 3.737413-1.023949 8.037998-0.102395 11.263437-2.969452 8.037998 0.051197 16.024799 0.051197 24.011599 0.051197zM307.978201 406.354082c-11.877806-3.635018-14.744863-7.628419-13.925704-19.352632 0.051197-0.972751 0.102395-1.9967 0.255988-2.969452 6.041298-33.380731 8.293985-31.486426 35.78701-31.435228 122.976251 0.102395 245.952502 0.051197 368.877556 0.051198 17.253537 0 19.659817 1.740713 25.393931 17.765511 3.9934 11.109845 6.041298 22.475676 5.887705 34.251088-0.460777 35.275036 1.279936 70.60127-1.023949 105.876306-0.20479 3.327834 1.638318 4.812559 3.123044 6.860457 30.820859 43.00585 10.956252 99.015849-40.138793 112.173591-4.812559 1.228739-6.450877 3.430228-7.628418 7.526024-13.464927 47.40883-41.879506 83.247038-84.117394 108.282586-8.498775 5.068547-8.140393 21.19574 0.460777 26.008299 4.658967 2.611069 9.522724 4.761362 13.976901 7.628419 15.973601 10.137093 32.715164 15.00085 52.272586 15.308035 41.316334 0.563172 79.253637 38.500475 80.482376 79.816809 1.331133 44.59297 0.563172 89.288336 0.511974 133.932503 0 9.932303-5.682916 15.564022-15.512824 15.666417-19.659817 0.255987-39.319634 0.051197-58.979451 0.102395-8.498775 0-13.669717-4.300585-16.178391-12.184991-2.662267-9.676316 1.075146-16.383181 10.853857-19.455027 4.505375-1.433528 9.113144-1.228739 13.720914-1.177541 8.293985-0.255987 16.639168-0.051197 24.933153-0.102395 5.426929 0 7.884406-2.457477 7.884406-7.884406-0.051197-35.940603 1.382331-71.932403-0.563172-107.770612-1.535923-28.875356-24.830758-47.511224-57.136343-48.637568-9.829909-1.228739-17.765512 2.252687-25.752312 8.089196-23.090045 16.895155-45.565722 34.60947-69.116544 50.99265-9.317934 6.502075-10.649068 17.816709-9.113145 28.005 3.532623 23.346033 8.908355 46.436078 13.516124 69.628519 1.126344 5.580521 4.556572 7.628419 9.932304 7.730813 8.652367 0.102395 17.355932-0.511974 25.957102 0.358382 11.468227 1.126344 16.79276 7.782011 15.103245 18.277486-2.713464 10.853857-9.881106 14.284086-20.734963 14.232889-100.551772-0.255987-201.154742-0.153592-301.706515-0.153593-14.949653 0-19.762212-4.761362-19.762212-19.557422-0.051197-39.985201-0.255987-79.919204 0.051197-119.904405 0.358382-52.886956 37.988501-90.721864 90.61947-90.619469 11.161042 0 20.786161-2.40628 30.104094-8.037998 6.80926-4.146993 13.618519-8.549973 20.990951-11.365832 9.420329-3.583821 11.980201-9.522724 11.263437-19.045447-0.40958-5.375731-2.047898-8.140393-6.60447-10.80266-41.469927-24.267587-69.167742-59.491425-82.683866-105.620319-1.689516-5.734113-4.19819-8.19159-10.239488-9.778711-48.842358-13.055347-68.502175-69.782111-38.551672-110.791261 2.815859-3.839808 3.123044-7.167642 2.918254-11.775411-0.716764-15.256837-0.716764-30.616069-0.358382-45.924104 0.20479-9.061947 6.39968-13.362532 14.79606-14.847257 9.625119-0.665567 15.359232 3.942203 16.639168 13.772111 0.819159 6.297285 0.40958 12.645768 0.409579 18.943053 0 5.836508 2.662267 8.549973 8.498775 8.447578 2.662267-0.051197 5.324534 0.051197 7.986801 0.051197 65.225539 0 130.39988-0.102395 195.625419 0.051197 18.584671 0.051197 35.275036-4.812559 50.429478-15.820009 14.284086-10.39308 19.60862-10.034698 32.305585 1.433529 10.085896 9.061947 21.502925 14.284086 35.172641 14.38648 10.649068-0.614369 21.349333-0.20479 31.9984-0.255987 6.655667 0 9.727514-2.867057 9.727514-9.573921 0.051197-26.0083 0.358382-51.965402-0.153592-77.973701-0.255987-11.826609-2.918254-13.874506-15.615219-14.028099-41.316334-0.511974-82.632668-0.40958-123.949003-0.409579-71.318034 0-142.636068 0-213.954102 0.051197-4.300585 0-8.703565-0.767962-12.748163 1.177541-3.891005 2.355082-3.532623 6.758062-4.966152 10.341883-3.276636 8.345183-8.60117 11.417029-17.253537 10.034698z" fill="#2F3C55" p-id="1653"></path><path d="M653.919304 489.60112c-14.693665 0.767962-26.417879-5.375731-36.40138-15.564022-9.932303-10.137093-15.308035-10.546673-26.571471-1.638318-14.949653 11.826609-31.844808 17.560722-50.890256 17.560722-69.321334-0.051197-138.642668-0.102395-207.912804 0.153592-7.270036 0.051197-10.444278-1.535923-9.573921-9.317934 0.614369-5.273336-0.153592-10.649068 0.153592-15.973601 0.614369-10.751462-4.19819-17.048748-14.744863-19.045448v-39.422029c9.932303-0.870356 15.052047-6.450877 16.024799-16.178391 0.20479-2.20149-0.153592-4.60777 1.945503-6.246087 3.123044-1.689516 6.553272-0.870356 9.778711-0.870357 101.422129-0.051197 202.844258-0.051197 304.266386-0.051197 13.055347 0 13.925704 0.614369 15.512825 13.720914 3.430228 28.158592 1.228739 56.470776 1.433528 84.680566 0.051197 3.020649-0.614369 5.9901-3.020649 8.19159z" fill="#D58A75" p-id="1654"></path><path d="M617.927504 1009.767112c-3.481426-13.106545-6.80926-15.820009-20.018199-15.871207-3.9934-0.051197-7.986801 0-11.980201 0-20.222989 0-20.171791 0-23.80681-19.455027-3.430228-18.277486-6.246088-36.759762-10.80266-54.781261-2.969452-11.673016 1.587121-21.554122 3.635018-32.151992 0.255987-1.177541 0.972751-2.815859 1.945503-3.276637 28.056197-14.232888 50.787861-36.042998 76.181791-54.115694 7.270036-5.170941 14.232888-8.037998 22.936453-6.092495 19.506225 11.775411 27.697815 30.564872 28.568172 51.760612 1.433528 35.787011 0.460777 71.676416 0.358382 107.514624 0 3.635018-0.051197 7.372431-2.918254 10.239488-3.635018 0.153592-7.321234-0.051197-10.905055 0.511975-9.983501 1.587121-13.772111 8.089196-13.464927 17.663116-13.157742-4.095795-26.571471-0.921554-39.729213-1.945502z" fill="#D5EAFE" p-id="1655"></path><path d="M833.110344 294.078096c-10.290685 0.102395-18.635868-5.478126-26.366681-10.751462-11.826609-7.986801-22.322084-9.061947-33.9951-0.255988-4.966152 3.737413-11.00745 6.143693-16.741563 8.703565-8.959552 4.044598-17.663117 3.071846-25.393931-2.867056-7.730813-5.938903-10.956252-13.976901-9.471526-23.755613 1.79191-11.826609 7.526024-24.933153 4.249387-35.121444-3.276636-10.137093-15.666417-17.355932-24.011599-25.905904-7.065247-7.321234-9.471526-15.973601-6.19489-25.701115 3.276636-9.676316 10.085896-15.308035 20.325384-16.792761 7.218839-1.075146 14.437678-3.174241 21.707714-3.174241 10.39308-0.051197 16.280786-4.454177 19.813409-14.130493 2.713464-7.423629 6.655667-14.488876 10.649068-21.349333 10.137093-17.355932 33.124744-17.458327 43.210639-0.051197 5.017349 8.60117 9.317934 17.611919 13.260137 26.776261 2.303885 5.426929 5.938903 7.372431 11.263437 8.037998 9.573921 1.228739 19.19904 2.355082 28.619369 4.19819 20.018199 3.891005 27.441828 26.469077 13.618519 41.521124-6.758062 7.372431-13.976901 14.335283-21.40053 20.939753-4.044598 3.583821-4.914954 7.321234-3.839808 12.338583 1.894305 9.113144 3.583821 18.277486 5.01735 27.493026 2.508675 15.973601-8.703565 29.694515-24.318785 29.848107zM279.819609 294.026899c-10.444278 0.358382-18.175091-4.351782-24.933153-9.317934-13.874506-10.188291-26.673866-10.085896-40.189991 0.153592-3.891005 2.969452-8.652367 4.966152-13.208939 6.911654-18.584671 7.935603-37.732513-6.553272-35.019049-26.622669 1.279936-9.522724 3.174241-19.045448 5.119744-28.465776 1.023949-5.017349 0.255987-8.703565-3.839808-12.338583-7.218839-6.348483-13.925704-13.413729-20.786161-20.171792-7.423629-7.270036-9.317934-16.280786-6.348483-25.752312 3.020649-9.625119 10.034698-15.410429 20.325384-16.843958 7.270036-1.023949 14.488876-3.123044 21.707715-3.174241 10.495475 0 16.331983-4.658967 19.813409-14.232889 2.611069-7.116444 6.39968-13.874506 10.034698-20.581371 4.658967-8.498775 11.877806-13.464927 21.758912-13.567321 10.239488-0.153592 17.816709 4.658967 22.680466 13.567321 2.047898 3.788611 4.556572 7.526024 5.631719 11.621819 4.812559 18.226289 17.253537 25.035548 35.070246 24.677167 3.942203-0.102395 7.935603 1.023949 11.826609 1.79191 20.018199 4.095795 27.544223 26.366682 13.823309 41.572321-6.246088 6.911654-12.850557 13.567322-20.018199 19.557422-5.375731 4.505375-6.348483 9.369132-5.068547 15.717615 1.843108 9.113144 3.583821 18.277486 4.761362 27.544222 1.945503 14.949653-9.522724 27.851407-23.141243 27.953803zM341.614919 228.084596c48.535173 0.819159 86.062897 33.687916 98.299085 86.062897 0.819159 3.532623 1.740713 7.116444 2.099095 10.751462 0.972751 9.420329-3.891005 16.280786-12.18499 17.509525-8.549973 1.228739-15.410429-3.327834-17.304735-12.645768-1.894305-9.113144-4.044598-18.123894-7.782011-26.673866-12.031398-27.749013-32.356782-44.029799-63.331234-45.00255-14.437678-0.460777-21.40053-5.068547-21.298135-14.949653 0.051197-10.137093 7.474826-15.308035 21.502925-15.052047zM680.132393 228.186991c5.222139 0 7.577221-0.255987 9.881106 0.051197 8.447578 1.075146 14.181691 7.526024 13.874507 15.461627-0.307185 7.935603-6.348483 14.130493-14.898455 14.232888-8.703565 0.102395-17.20234 0.665567-25.547523 3.276637-28.516974 8.857157-42.135493 30.462477-49.40553 57.545922-1.126344 4.146993-1.638318 8.498775-2.867056 12.594571-2.611069 8.447578-9.420329 12.696965-17.560722 10.853857-8.39638-1.894305-12.748163-7.679616-11.519424-16.024799 8.242788-57.39233 44.285786-95.739213 98.043097-97.9919zM526.488876 306.263087c0 7.321234 0.255987 14.642468-0.102395 21.912504-0.358382 8.498775-5.068547 13.516124-13.618519 14.284086-8.242788 0.716764-15.308035-4.505375-15.717615-13.157742-0.767962-14.898455-0.716764-29.899305-0.102394-44.848958 0.307185-8.498775 7.526024-14.386481 15.205639-14.130493 7.833208 0.255987 13.874506 6.297285 14.284086 14.949652 0.358382 7.014049 0.051197 14.028099 0.051198 20.990951z" fill="#2F3C55" p-id="1656"></path><path d="M489.933903 158.148893c-7.782011-12.287386-17.253537-23.346033-25.854707-34.967852-14.079296-18.99425-15.410429-40.189991-4.505375-61.129744 10.853857-20.888556 28.568172-31.691215 52.477376-31.58882 20.274186 11.314634 28.107395 30.308885 30.41128 51.760612 2.764662 26.315484-9.113144 47.152842-25.80351 66.556672-7.833208 9.061947-15.717614 12.287386-26.725064 9.369132z" fill="#FCB87E" p-id="1657"></path><path d="M489.933903 158.148893c10.853857 1.638318 17.919104-2.969452 24.984351-11.468227 13.874506-16.690365 24.933153-33.841508 25.189141-56.470776 0.20479-20.99095-6.80926-38.705265-22.0149-53.194141-2.150292-2.047898-3.9934-4.40298-5.9901-6.60447 23.909205 0.102395 41.418729 11.365832 52.067796 32.20319 10.905055 21.349333 8.80596 42.59627-5.529323 61.897705-7.730813 10.341883-17.20234 19.40383-22.731663 31.332834-0.870356 1.894305-2.150292 3.532623-4.40298 3.430228-13.925704-0.665567-27.80021 1.79191-41.572322-1.126343z" fill="#FDA85C" p-id="1658"></path><path d="M498.125494 189.788911c8.242788-0.051197 16.485576 0.153592 24.728363-0.153593 5.170941-0.20479 7.014049 1.843108 6.911655 6.962852-0.20479 9.317934-2.815859 17.355932-12.287386 20.530174-9.369132 3.123044-16.741563-0.358382-21.40053-9.164342 0.972751-6.041298-2.099095-12.492175 2.047898-18.175091z" fill="#3E5858" p-id="1659"></path><path d="M498.125494 189.788911c-1.023949 5.9901 1.9967 12.492175-2.047898 18.123893-1.228739-6.246088-6.348483-12.952952 2.047898-18.123893z" fill="#537982" p-id="1660"></path><path d="M528.024799 737.499125c-74.953052 9.215539-146.373481-41.674716-162.142293-115.552622-3.737413-17.509525-4.146993-17.919104-22.373281-20.581371-23.19244-3.430228-38.705265-21.40053-37.169342-43.057047 1.587121-22.373281 19.301435-38.244488 43.00585-38.295686 61.59052-0.051197 123.129844-0.255987 184.720364 0.102395 22.782861 0.102395 44.234588-3.942203 63.843208-15.973601 2.611069-1.587121 4.761362-2.918254 7.935603-0.40958 15.20564 12.133793 33.022349 16.485576 52.170191 16.587971 14.847258 7.372431 17.765512 21.60532 19.967002 35.838208 3.071846 19.915804-12.031398 47.152842-30.20649 55.702815-3.071846 1.433528-6.143693 2.508675-9.573921 2.40628-9.113144-1.945503-18.379881-1.689516-27.646618-1.689516-6.911654 0-12.645768 1.945503-14.693665 9.215539-1.9967 7.116444 2.508675 11.058647 8.140393 14.079296 9.932303 4.40298 10.290685 5.170941 6.450877 14.488876-13.567322 32.715164-34.19989 59.696215-64.508774 78.79286-5.682916 3.430228-11.570621 6.348483-17.919104 8.345183z" fill="#FEDCD2" p-id="1661"></path><path d="M381.753712 993.844708c-22.987651 0-45.924104-0.153592-68.911754 0.102395-5.426929 0.051197-7.372431-1.126344-7.321234-7.01405 0.307185-35.633418-0.20479-71.215639 0.358382-106.849057 0.511974-31.332833 25.496325-55.344433 56.880356-56.726764 12.133793-0.511974 22.168492 1.740713 31.9984 9.778711 19.301435 15.768812 38.756462 31.79361 60.105795 44.388181 19.40383 11.468227 19.915804 26.878656 16.58797 44.951352-3.839808 20.888556-8.498775 41.674716-12.133793 62.61447-1.177541 6.911654-3.481426 9.113144-10.700265 8.908354-22.270886-0.511974-44.59297-0.153592-66.863857-0.153592z" fill="#D5EAFE" p-id="1662"></path><path d="M528.024799 737.499125c30.20649-17.151142 55.702815-39.166042 71.932403-70.60127 3.020649-5.887706 5.324534-12.133793 8.549973-17.867906 3.430228-6.041298 1.587121-9.266737-4.556573-11.058648 5.478126-4.505375 12.031398-2.508675 18.123894-2.662266 16.741563-0.40958 19.711014-4.044598 15.61522-20.427779a4.786961 4.786961 0 0 1 0.255987-2.918254c15.308035-0.358382 32.254387-22.066097 36.042998-38.346883 4.863757-20.888556-1.433528-38.346883-15.973602-53.347732 8.60117 0.102395 17.40713-0.921554 25.854708 0.460777 20.018199 3.327834 34.19989 21.554122 33.329533 41.213939-0.921554 20.99095-16.587971 37.476526-37.732513 39.626819-17.099945 1.740713-17.970301 2.508675-21.60532 19.864606-13.00415 61.948903-68.297385 111.354432-129.836708 116.064597z" fill="#FED2C8" p-id="1663"></path><path d="M681.975501 993.537523c0-31.844808-1.126344-63.79201 0.358382-95.585621 1.331133-28.772961-5.170941-53.706115-26.315484-73.929103 33.483126-2.047898 61.488126 22.475676 62.102495 55.651617 0.665567 35.838208 0.102395 71.727614 0.358382 107.617019 0.051197 5.170941-1.279936 6.962852-6.60447 6.706865-9.983501-0.511974-19.967002-0.358382-29.899305-0.460777z" fill="#C9E4FE" p-id="1664"></path><path d="M653.919304 489.60112c0-25.957102 0.20479-51.914204-0.051197-77.871306-0.051197-7.218839-1.331133-14.488876-1.945503-21.707715-0.358382-4.095795-2.662267-5.887706-6.553272-5.887706-2.969452-0.051197-5.9901-0.051197-8.959552-0.051197l-310.41008-0.153592c3.123044-2.969452 6.962852-1.587121 10.444278-1.587121 116.422979-0.051197 232.897155 0.153592 349.320134-0.153592 9.266737 0 13.925704 2.764662 13.976901 11.826608 0.307185 30.257687 0.307185 60.566572 0.563172 90.824259 0.051197 4.863757-2.815859 5.170941-6.450878 5.170941-13.362532-0.20479-26.673866-0.307185-39.934003-0.409579z" fill="#C1816F" p-id="1665"></path><path d="M535.39723 993.844708c-14.898455 0-28.824159-0.102395-42.749862 0.051197-4.60777 0.051197-4.40298-2.047898-3.686216-5.580521 3.942203-19.557422 7.833208-39.114844 11.365832-58.723464 1.075146-5.9901 4.914954-6.706865 9.369131-5.734113 4.40298 0.972751 11.109845-3.9934 12.79936 4.761362 4.19819 21.451727 8.498775 42.903455 12.901755 65.225539z" fill="#FD8883" p-id="1666"></path><path d="M462.543273 761.817909c1.126344 0.307185 2.713464 0.716764 4.351782 1.126344 29.950502 7.730813 59.952202 7.321234 89.953903 0.153592 2.559872-0.614369 5.836508-3.635018 7.628418 0.563172 1.484726 3.532623-0.614369 6.143693-3.78861 8.242788-15.00085 9.881106-30.0017 19.813409-44.848958 29.899305-2.867057 1.945503-5.017349 2.20149-7.986801 0.153592-15.154442-10.290685-30.360082-20.427779-45.668116-30.513674-2.815859-1.843108-4.300585-3.942203-3.737413-7.372432 0.358382-2.303885 1.894305-2.355082 4.095795-2.252687z" fill="#FED2C8" p-id="1667"></path><path d="M413.854507 810.353082c9.010749-4.966152 16.895155-9.061947 24.574772-13.567321 3.430228-1.9967 5.938903-1.331133 8.959552 0.716764 13.413729 9.113144 26.929854 18.021499 41.111544 27.441828-6.655667 7.014049-13.157742 13.567322-19.301435 20.427778-3.020649 3.430228-5.222139 2.508675-8.293985 0.20479-15.308035-11.570621-30.718464-22.987651-47.050448-35.223839z" fill="#D5EAFE" p-id="1668"></path><path d="M510.361682 893.753712c-7.782011 2.303885-10.956252-2.559872-11.980201-10.239488-0.20479-1.638318-0.614369-3.276636-1.023949-4.863757-3.839808-14.847258-0.716764-23.243638 11.775411-31.58882 0.819159-0.511974 1.638318-1.331133 2.457477-1.382331 3.9934-0.255987 18.277486 17.816709 17.355933 21.963702-1.177541 5.170941-2.559872 10.341883-3.891006 15.461627-2.764662 10.649068-2.764662 10.649068-14.693665 10.649067z" fill="#FD8883" p-id="1669"></path><path d="M571.286636 801.444728c5.682916-6.706865 11.621819-7.065247 18.840658-1.945503 5.631718 3.942203 12.082596 6.758062 19.659817 10.853857-16.895155 12.59457-32.766362 24.267587-48.483976 36.145393-2.918254 2.20149-4.710164 1.382331-6.706865-0.921554-2.815859-3.225439-5.682916-6.39968-8.549972-9.573921 8.857157-7.065247 18.123894-13.516124 27.083446-20.427779 7.935603-6.041298 7.935603-6.041298-0.102395-11.775411a4.694805 4.694805 0 0 1-1.740713-2.355082z" fill="#C9E4FE" p-id="1670"></path><path d="M571.286636 801.444728c5.222139 1.126344 9.625119 3.788611 15.410429 7.474826-14.949653 8.703565-24.984351 21.861307-40.650767 27.083446-11.621819-10.495475-11.673016-10.546673 1.023948-18.943053 8.037998-5.273336 16.127194-10.444278 24.21639-15.615219z" fill="#D5EAFE" p-id="1671"></path><path d="M802.340683 173.866507c5.580521 6.962852 12.59457 11.468227 21.60532 12.543373 3.532623 4.966152-0.358382 7.986801-3.123044 11.007449-5.580521 6.041298-11.263437 12.031398-17.40713 17.458327-7.167642 6.348483-11.519424 13.260137-8.908354 23.243638 0.460777 1.843108 0.511974 3.942203-0.665567 5.734113-15.768812-1.433528-26.622669 10.700265-42.647468 15.666417 11.826609-29.028949 6.450877-52.170191-23.39723-68.246188 19.813409-6.041298 40.548373-1.177541 50.327084-21.042148 8.549973-2.099095 16.690365-1.023949 24.216389 3.635019z" fill="#FCB87E" p-id="1672"></path><path d="M793.841908 243.80221c-4.454177-11.519424-4.044598-21.451727 6.860457-29.848108 6.80926-5.222139 12.338583-12.082596 18.533473-18.175091 2.662267-2.611069 5.273336-5.170941 4.761362-9.369131 7.782011 0.921554 15.666417 1.126344 25.649918 4.812559-27.441828 16.536773-35.121444 39.012449-21.246938 69.321334-13.720914-6.655667-24.165192-11.724214-34.558272-16.741563zM802.340683 173.866507c-8.140393-0.665567-16.331983-1.228739-24.216389-3.737413l11.058647-24.113995c4.914954 10.39308 9.010749 19.147843 13.157742 27.851408z" fill="#FDA85C" p-id="1673"></path><path d="M247.974801 174.071296c5.529324 7.372431 13.00415 11.314634 22.0149 12.389781 3.020649 5.9901-1.740713 9.215539-4.863757 12.748163-5.017349 5.785311-11.673016 9.829909-17.151143 15.205639-6.246088 6.143693-11.058647 12.389781-8.089195 21.912505 0.819159 2.559872 0.255987 5.324534-1.843108 7.423628-15.256837-0.767962-25.80351 11.00745-41.418729 15.717615 11.417029-28.721764 6.655667-52.067797-23.499625-68.246188 19.250237-6.143693 39.114844-1.126344 49.303135-19.301435 9.010749-5.017349 17.355932-2.20149 25.547522 2.150292z" fill="#FCB87E" p-id="1674"></path><path d="M238.093695 243.751012c-0.255987-2.969452 0.153592-6.19489-0.870356-8.857157-2.713464-7.372431-0.307185-13.055347 5.017349-17.970301 7.065247-6.553272 14.232888-13.00415 21.349332-19.506225 3.276636-2.969452 5.785311-6.39968 6.450878-10.956252 7.474826 1.023949 15.00085 1.9967 23.346033 3.123044-7.935603 11.877806-21.554122 17.560722-25.649918 30.872056-3.9934 13.00415 3.686216 25.189141 2.918254 38.39808-11.417029-4.300585-20.99095-11.929004-32.561572-15.103245zM247.974801 174.071296c-8.549973 0.102395-16.843958-3.174241-25.496325-2.099095 3.788611-7.935603 7.577221-15.922404 12.236188-25.752312 5.017349 10.444278 9.113144 19.147843 13.260137 27.851407z" fill="#FDA85C" p-id="1675"></path><path d="M510.310484 689.322334c-26.315484-1.126344-48.074396-22.680466-48.38158-47.767212-0.102395-9.881106 5.478126-16.741563 14.079296-17.253537 8.037998-0.460777 14.335283 5.375731 15.820009 14.693665 2.099095 13.157742 9.573921 20.530173 20.325383 20.274187 10.495475-0.307185 17.663117-7.628419 19.659817-20.120594 1.587121-9.932303 8.140393-15.871206 16.485576-14.847258 8.549973 1.075146 13.925704 8.345183 13.362532 18.021499-1.433528 26.366682-25.240338 48.125594-51.351033 46.99925zM446.211289 572.489776c0 5.324534 0.255987 10.649068-0.051197 15.922403-0.511974 8.498775-5.324534 13.464927-13.823309 14.079296-8.60117 0.563172-14.642468-4.095795-15.461627-12.236188-1.126344-11.519424-1.023949-23.243638-0.102395-34.763062 0.665567-8.242788 6.80926-12.79936 15.154443-12.850557 7.935603-0.051197 13.720914 6.19489 14.181691 14.949652 0.358382 4.966152 0.102395 9.932303 0.102394 14.898456zM577.430328 572.694565c0-5.631718-0.40958-11.314634 0.102395-16.895155 0.716764-8.140393 6.143693-12.696965 13.772112-13.106545 8.19159-0.40958 14.540073 4.044598 15.154442 12.543373 0.819159 11.519424 0.819159 23.19244 0 34.711865-0.614369 8.498775-6.655667 12.850557-15.103245 12.492175-7.986801-0.307185-13.055347-4.812559-13.823309-12.901755-0.511974-5.529324-0.102395-11.212239-0.102395-16.843958z" fill="#2F3C55" p-id="1676"></path><path d="M637.945703 612.014199c3.379031 5.478126 7.935603 10.59787 4.095795 17.919104-3.839808 7.218839-9.932303 8.60117-17.40713 8.140393-6.860457-0.40958-13.772111-0.051197-20.683766-0.051197-8.39638-1.79191-13.00415-7.270036-11.519424-15.512824 1.484726-8.089196 6.706865-13.311334 16.127194-12.594571 9.778711 0.716764 19.762212-1.433528 29.387331 2.099095zM406.072496 637.971301c-3.635018 0-7.321234-0.102395-10.956252 0-8.80596 0.255987-14.181691-4.351782-14.847257-12.645767-0.614369-8.39638 4.710164-14.130493 12.850557-15.052048 8.498775-0.972751 17.253537-0.767962 25.854707-0.051197 7.577221 0.614369 14.079296 8.60117 12.492176 15.359232-1.638318 7.167642-5.785311 12.696965-14.437678 12.38978-3.635018-0.102395-7.270036 0-10.956253 0z" fill="#FEBDAD" p-id="1677"></path></svg>